<?xml version="1.0" encoding="utf-8"?>
<svg width="70px" height="70px" viewBox="0 0 70 70" version="1.1" xmlns:xlink="http://www.w3.org/1999/xlink" xmlns="http://www.w3.org/2000/svg">
  <defs>
    <path d="M70 0L70 0L70 70L0 70L0 0L70 0Z" id="path_1" />
    <clipPath id="clip_1">
      <use xlink:href="#path_1" clip-rule="evenodd" fill-rule="evenodd" />
    </clipPath>
  </defs>
  <g id="Group-17">
    <g id="facebook">
      <path d="M70 0L70 0L70 70L0 70L0 0L70 0Z" id="facebook" fill="none" stroke="none" />
      <path d="M70.0002 35.2144C70.0002 15.7631 54.3289 -0.00439453 35.0002 -0.00439453C15.6627 -1.77626e-05 -0.00854492 15.7631 -0.00854492 35.2187C-0.00854492 52.7931 12.7927 67.3619 29.5227 70.0043L29.5227 45.395L20.6415 45.395L20.6415 35.2187L29.5315 35.2187L29.5315 27.4531C29.5315 18.6287 34.7596 13.755 42.7527 13.755C46.5852 13.755 50.5883 14.4419 50.5883 14.4419L50.5883 23.1044L46.174 23.1044C41.8296 23.1044 40.4733 25.8212 40.4733 28.6081L40.4733 35.2144L50.1771 35.2144L48.6283 45.3906L40.469 45.3906L40.469 70C57.1989 67.3575 70.0002 52.7887 70.0002 35.2144" id="Shape" fill="#FFEDED" stroke="none" clip-path="url(#clip_1)" />
      <path d="M70.0002 35.2144C70.0002 15.7631 54.3289 -0.00439453 35.0002 -0.00439453C15.6627 -1.77626e-05 -0.00854492 15.7631 -0.00854492 35.2187C-0.00854492 52.7931 12.7927 67.3619 29.5227 70.0043L29.5227 45.395L20.6415 45.395L20.6415 35.2187L29.5315 35.2187L29.5315 27.4531C29.5315 18.6287 34.7596 13.755 42.7527 13.755C46.5852 13.755 50.5883 14.4419 50.5883 14.4419L50.5883 23.1044L46.174 23.1044C41.8296 23.1044 40.4733 25.8212 40.4733 28.6081L40.4733 35.2144L50.1771 35.2144L48.6283 45.3906L40.469 45.3906L40.469 70C57.1989 67.3575 70.0002 52.7887 70.0002 35.2144" id="Shape" fill="#FFEDED" stroke="none" clip-path="url(#clip_1)" />
    </g>
  </g>
</svg>