<?xml version="1.0" encoding="utf-8"?>
<svg width="65px" height="65px" viewBox="0 0 65 65" version="1.1" xmlns:xlink="http://www.w3.org/1999/xlink" xmlns="http://www.w3.org/2000/svg">
  <defs>
    <path d="M65 0L65 0L65 65L0 65L0 0L65 0Z" id="path_1" />
    <clipPath id="clip_1">
      <use xlink:href="#path_1" clip-rule="evenodd" fill-rule="evenodd" />
    </clipPath>
  </defs>
  <g id="Group-18">
    <g id="instagram">
      <path d="M65 0L65 0L65 65L0 65L0 0L65 0Z" id="instagram" fill="none" stroke="none" />
      <path d="M32.5 3.0268e-08C23.6803 3.0268e-08 22.5713 0.040625 19.1059 0.195C15.6406 0.3575 13.2803 0.901875 11.2125 1.70625C9.04249 2.52007 7.07745 3.80005 5.45594 5.45593C3.80006 7.07745 2.52007 9.04249 1.70625 11.2125C0.901875 13.2762 0.353437 15.6406 0.195 19.0938C0.040625 22.5672 0 23.6722 0 32.5041C0 41.3278 0.040625 42.4328 0.195 45.8981C0.3575 49.3594 0.901875 51.7197 1.70625 53.7875C2.53906 55.9244 3.64812 57.7363 5.45594 59.5441C7.25969 61.3519 9.07156 62.465 11.2084 63.2938C13.2803 64.0981 15.6366 64.6466 19.0978 64.805C22.5672 64.9594 23.6722 65 32.5 65C41.3278 65 42.4287 64.9594 45.8981 64.805C49.3553 64.6425 51.7238 64.0981 53.7916 63.2938C55.9601 62.4794 57.9237 61.1994 59.5441 59.5441C61.3519 57.7362 62.4609 55.9244 63.2938 53.7875C64.0941 51.7197 64.6425 49.3594 64.805 45.8981C64.9594 42.4328 65 41.3278 65 32.5C65 23.6722 64.9594 22.5672 64.805 19.0978C64.6425 15.6406 64.0941 13.2763 63.2938 11.2125C62.4799 9.04249 61.1999 7.07745 59.5441 5.45594C57.9226 3.80006 55.9575 2.52007 53.7875 1.70625C51.7156 0.901873 49.3512 0.353436 45.8941 0.194998C42.4247 0.040625 41.3237 3.0268e-08 32.4919 3.0268e-08L32.5 3.0268e-08ZM29.5872 5.85774L32.5041 5.85774C41.1816 5.85774 42.2094 5.88618 45.6341 6.04461C48.8029 6.1868 50.5253 6.71899 51.671 7.1618C53.1863 7.75086 54.271 8.45774 55.4085 9.59524C56.546 10.7327 57.2488 11.8134 57.8378 13.3327C58.2847 14.4743 58.8129 16.1968 58.955 19.3656C59.1135 22.7902 59.146 23.8181 59.146 32.4915C59.146 41.1649 59.1135 42.1968 58.955 45.6215C58.8129 48.7902 58.2807 50.5087 57.8378 51.6543C57.3131 53.0636 56.482 54.3388 55.4044 55.3877C54.2669 56.5252 53.1863 57.228 51.6669 57.8171C50.5294 58.264 48.8069 58.7921 45.6341 58.9384C42.2094 59.0927 41.1816 59.1293 32.5041 59.1293C23.8266 59.1293 22.7947 59.0927 19.37 58.9384C16.2013 58.7921 14.4828 58.264 13.3372 57.8171C11.9269 57.2941 10.6503 56.4643 9.59972 55.3877C8.5202 54.338 7.68761 53.0614 7.16222 51.6502C6.7194 50.5087 6.18722 48.7862 6.04503 45.6174C5.89065 42.1927 5.85815 41.1649 5.85815 32.4834C5.85815 23.8018 5.89065 22.7821 6.04503 19.3574C6.19128 16.1887 6.7194 14.4662 7.16628 13.3205C7.75534 11.8052 8.46222 10.7205 9.59972 9.58305C10.7372 8.44555 11.8178 7.74273 13.3372 7.15367C14.4828 6.7068 16.2013 6.17867 19.37 6.03242C22.3682 5.8943 23.53 5.85367 29.5872 5.84961L29.5872 5.85774ZM49.8512 11.2529C47.6973 11.2529 45.9512 12.999 45.9512 15.1529C45.9512 17.3068 47.6973 19.0529 49.8512 19.0529C52.0051 19.0529 53.7512 17.3068 53.7512 15.1529C53.7512 12.999 52.0051 11.2529 49.8512 11.2529M32.5041 15.8116C26.4789 15.7176 20.8708 18.8781 17.8308 24.0809C14.7908 29.2837 14.7908 35.7211 17.8308 40.9239C20.8708 46.1267 26.4789 49.2872 32.504 49.1932C41.6206 49.0509 48.9364 41.62 48.9364 32.5024C48.9364 23.3847 41.6206 15.9539 32.504 15.8116M32.504 21.6655C38.4878 21.6655 43.3387 26.5164 43.3387 32.5002C43.3387 38.484 38.4878 43.3349 32.504 43.3349C26.5202 43.3349 21.6693 38.484 21.6693 32.5002C21.6693 26.5164 26.5202 21.6655 32.504 21.6655" id="Shape" fill="#FFEDED" fill-rule="evenodd" stroke="none" clip-path="url(#clip_1)" />
      <path d="M32.5 3.0268e-08C23.6803 3.0268e-08 22.5713 0.040625 19.1059 0.195C15.6406 0.3575 13.2803 0.901875 11.2125 1.70625C9.04249 2.52007 7.07745 3.80005 5.45594 5.45593C3.80006 7.07745 2.52007 9.04249 1.70625 11.2125C0.901875 13.2762 0.353437 15.6406 0.195 19.0938C0.040625 22.5672 0 23.6722 0 32.5041C0 41.3278 0.040625 42.4328 0.195 45.8981C0.3575 49.3594 0.901875 51.7197 1.70625 53.7875C2.53906 55.9244 3.64812 57.7363 5.45594 59.5441C7.25969 61.3519 9.07156 62.465 11.2084 63.2938C13.2803 64.0981 15.6366 64.6466 19.0978 64.805C22.5672 64.9594 23.6722 65 32.5 65C41.3278 65 42.4287 64.9594 45.8981 64.805C49.3553 64.6425 51.7238 64.0981 53.7916 63.2938C55.9601 62.4794 57.9237 61.1994 59.5441 59.5441C61.3519 57.7362 62.4609 55.9244 63.2938 53.7875C64.0941 51.7197 64.6425 49.3594 64.805 45.8981C64.9594 42.4328 65 41.3278 65 32.5C65 23.6722 64.9594 22.5672 64.805 19.0978C64.6425 15.6406 64.0941 13.2763 63.2938 11.2125C62.4799 9.04249 61.1999 7.07745 59.5441 5.45594C57.9226 3.80006 55.9575 2.52007 53.7875 1.70625C51.7156 0.901873 49.3512 0.353436 45.8941 0.194998C42.4247 0.040625 41.3237 3.0268e-08 32.4919 3.0268e-08L32.5 3.0268e-08ZM29.5872 5.85774L32.5041 5.85774C41.1816 5.85774 42.2094 5.88618 45.6341 6.04461C48.8029 6.1868 50.5253 6.71899 51.671 7.1618C53.1863 7.75086 54.271 8.45774 55.4085 9.59524C56.546 10.7327 57.2488 11.8134 57.8378 13.3327C58.2847 14.4743 58.8129 16.1968 58.955 19.3656C59.1135 22.7902 59.146 23.8181 59.146 32.4915C59.146 41.1649 59.1135 42.1968 58.955 45.6215C58.8129 48.7902 58.2807 50.5087 57.8378 51.6543C57.3131 53.0636 56.482 54.3388 55.4044 55.3877C54.2669 56.5252 53.1863 57.228 51.6669 57.8171C50.5294 58.264 48.8069 58.7921 45.6341 58.9384C42.2094 59.0927 41.1816 59.1293 32.5041 59.1293C23.8266 59.1293 22.7947 59.0927 19.37 58.9384C16.2013 58.7921 14.4828 58.264 13.3372 57.8171C11.9269 57.2941 10.6503 56.4643 9.59972 55.3877C8.5202 54.338 7.68761 53.0614 7.16222 51.6502C6.7194 50.5087 6.18722 48.7862 6.04503 45.6174C5.89065 42.1927 5.85815 41.1649 5.85815 32.4834C5.85815 23.8018 5.89065 22.7821 6.04503 19.3574C6.19128 16.1887 6.7194 14.4662 7.16628 13.3205C7.75534 11.8052 8.46222 10.7205 9.59972 9.58305C10.7372 8.44555 11.8178 7.74273 13.3372 7.15367C14.4828 6.7068 16.2013 6.17867 19.37 6.03242C22.3682 5.8943 23.53 5.85367 29.5872 5.84961L29.5872 5.85774ZM49.8512 11.2529C47.6973 11.2529 45.9512 12.999 45.9512 15.1529C45.9512 17.3068 47.6973 19.0529 49.8512 19.0529C52.0051 19.0529 53.7512 17.3068 53.7512 15.1529C53.7512 12.999 52.0051 11.2529 49.8512 11.2529M32.5041 15.8116C26.4789 15.7176 20.8708 18.8781 17.8308 24.0809C14.7908 29.2837 14.7908 35.7211 17.8308 40.9239C20.8708 46.1267 26.4789 49.2872 32.504 49.1932C41.6206 49.0509 48.9364 41.62 48.9364 32.5024C48.9364 23.3847 41.6206 15.9539 32.504 15.8116M32.504 21.6655C38.4878 21.6655 43.3387 26.5164 43.3387 32.5002C43.3387 38.484 38.4878 43.3349 32.504 43.3349C26.5202 43.3349 21.6693 38.484 21.6693 32.5002C21.6693 26.5164 26.5202 21.6655 32.504 21.6655" id="Shape" fill="#FFEDED" fill-rule="evenodd" stroke="none" clip-path="url(#clip_1)" />
    </g>
  </g>
</svg>